<?xml version="1.0" encoding="utf-8"?>
<!-- Generator: Adobe Illustrator 23.0.1, SVG Export Plug-In . SVG Version: 6.00 Build 0)  -->
<svg version="1.1" id="Layer_1" xmlns="http://www.w3.org/2000/svg" xmlns:xlink="http://www.w3.org/1999/xlink" x="0px" y="0px"
	 viewBox="0 0 1000 1000" style="enable-background:new 0 0 1000 1000;" xml:space="preserve">
<style type="text/css">
	.st0{fill-rule:evenodd;clip-rule:evenodd;fill:#020203;}
	.st1{fill-rule:evenodd;clip-rule:evenodd;fill:#ED2124;}
	.st2{fill:#020203;}
</style>
<g id="surface1">
	<path class="st0" d="M602.8,671.3h20.4v71h-20.4V671.3"/>
	<path class="st0" d="M348.3,742.3h78.1v-71H406v60.5h-37.3v-60.5h-20.4V742.3"/>
	<path class="st0" d="M176.6,671.3h76.8l-10.5,10.5l-45.9,0v19.8h51.8v10.5h-51.8v19.8h45.5c0,0,0,0,0,0h0.4l10.5,10.5h-76.8V671.3"
		/>
	<path class="st0" d="M77.6,723.7l20.4,20.9v-62.8h43.6c0.7,0,1.1,0.5,1.1,1.1v26.6h-36.9l57.5,58.7l0-24.6l-21-21.6h21l0-40.3
		c0-0.7,0-1.3,0-2c0-2.6-0.2-4.7-0.7-5.7c-0.7-1.4-2.1-2.6-4.2-2.6H77.6V723.7"/>
	<path class="st0" d="M406.5,847.8h20.4v-40.7l20.9,14.1l0,0l0,0l20.9-14.1v40.7h20.4v-70.7c-13.9,9.3-27.6,19-41.3,28.6
		c-13.7-9.6-27.4-19.3-41.3-28.6V847.8"/>
	<path class="st0" d="M223.8,847.8h79.8v-39.3h-20.4v28.9h-39v-49.8h48.7l10.5-10.5h-79.5V847.8"/>
	<path class="st0" d="M284.4,681.8h32.4c0.7,0,1.1,0.5,1.1,1.1v25.7h-33.6V681.8z M264,742.3h20.5l0-23.2l54.2,0v-41.6
		c0-3.6-1.6-6.2-5.1-6.2H264V742.3"/>
	<path class="st0" d="M506.1,699.9h5.1v9.3c0,11,0,22.1,0,33.1c-25,0-50,0-75,0c0-23.7,0-47.3,0-71h65.1c3,0,4.8,2.6,4.8,5.7V699.9z
		 M456.6,710.4h34.2v21.5h-34.2V710.4z M457.7,681.8h32.8c0.6,0,1.1,0.5,1.1,1.1v17h-35.1v-18.1H457.7"/>
	<path class="st0" d="M522.8,671.3h20.4v60.5h51.8l-0.1,0.1l-10.4,10.4h-61.6V671.3"/>
	<path class="st0" d="M634.5,671.3H712l-10.4,10.4l-0.1,0.1h-46.6v50.1H712l-10.4,10.4l-0.1,0.1h-67V671.3"/>
	<path class="st0" d="M768.7,671h48.8c2.3,0,4.2,1.9,4.2,4.2v67.3h-53.1L744,717.9V671H768.7z M782.3,682.6h19.1v49.5h-19.1l-18-18
		v-31.5H782.3"/>
	<path class="st0" d="M833.9,671.3h76.4l-10.4,10.4l-0.1,0.1h-45.5v14.4H908l-10.4,10.6l-0.1,0.1h-43.1v35.4h-20.4V671.3"/>
	<path class="st0" d="M389.8,777.1c2.5,0,4.5,2,4.5,4.5c0,22.1,0,44.1,0,66.2c-6.8,0-13.6,0-20.4,0v-30h-35.9v30
		c-6.8,0-13.6,0-20.4,0c0-23.6,0-47.1,0-70.7C341.8,777.1,365.8,777.1,389.8,777.1z M338.1,787.6h34.8c0.7,0,1.1,0.5,1.1,1.1v18.7
		h-35.9V787.6"/>
	<path class="st0" d="M513.9,777.1h63.4l-10.4,10.4l-0.1,0.1h-45.7v19.5h51.5v10.5h-51.5v19.8h45.7l0.1,0.1l10.4,10.4h-76.6v-70.7
		H513.9"/>
	<path class="st0" d="M586.7,777.1H661c2.7,0,5,2.2,5,5v34.3h-18.4l28.1,31.4h-25.8l-28.1-31.4l-10.1-11.3l1.2-1.2h32.7v-15.4
		c0-0.6-0.5-1.1-1.1-1.1h-37.4v60.3h-20.4V777.1"/>
	<path class="st0" d="M684.3,777.1h72.2L746,787.5l-0.1,0.1H699v19.8h56.3v40.5h-67.5l-0.1-0.1l-10.4-10.4h57.7v-19.5h-56.3v-40.7
		H684.3"/>
	<path class="st1" d="M475.4,414c40.4-25.7,82.7-51,129.3-77.2c57.9-32.6,115.9-62.2,164.6-85.4c58.6-27.9,103.5-46.6,113.7-49.9
		c0,0.2,0,0.4,0,0.7v1.3c-0.2,17.9-9.6,39.3-29.1,48.3c-100.1,45.8-343.2,176.9-436.6,248.2c15.1,6.3,76.7,25.6,148.7,30.1
		c33.2,2,51.8-5,64.2-11.3c17.5-8.9,37.5-26.7,56.5-56.5c25.2-39.4,42-87.1,42-87.1L469.3,485.8c0,0,226.1-140,376.6-208.8
		c-2.4,15.5-22,69.1-47.6,124c-15.7,33.7-36.1,67-53.9,94.4c-41.5,63.8-78.6,78.6-85.6,80.5c-10.5,2.9-64.6,0.8-106.1-5.1
		c-86.5-12.5-183.5-42.3-215.2-62C345.7,501,403.6,459.7,475.4,414z M816.7,152.2h-2c-110.7,0.1-208.7,36.4-214.9,39.6
		c-15.5,8-51.4,38.3-60.1,46.8c-9.1,8.8-53.3,54.6-100.8,100.9c-43.4,42.2-89.6,84.7-113,101.4c-17.4,8.4-86.8-47-119.6-48.8
		c10.3,3.8,18.3,23.2,36,57c13.4,25.6,32.9,61.6,56.5,89.7c24.6,29.3,61.7,56.8,93.2,69.6c-24.8-24.8-68.5-81.2-68-94.3
		c1.1-30.6,71.9-78.3,146.8-137.5c41.4-32.7,234-182.5,400.5-221C853,153.2,834.7,152.2,816.7,152.2z M196,471.6
		c-26.1-14.2-48.1-30.3-53.1-37.4c-4.1-5.8-11.8-20.6-18.6-41C114.1,362,104.9,323,104.9,323s41.9,53.9,78.8,97.2
		c38.1,44.8,71.3,79.2,71.3,79.2S223.5,486.6,196,471.6"/>
	<path class="st2" d="M920.1,646.8c0.7,0,1.2,0.3,1.6,0.9c0.3,0.6,0.5,1.3,0.5,2.3v7c0,0.4,0,0.8-0.1,1.1c-0.1,0.4-0.2,0.7-0.4,1
		c-0.2,0.3-0.4,0.5-0.6,0.7c-0.3,0.2-0.5,0.3-0.9,0.3v-10h-1.8v7c0,0.4,0,0.8-0.1,1.1c-0.1,0.4-0.2,0.7-0.4,0.9
		c-0.2,0.3-0.4,0.5-0.6,0.7c-0.3,0.2-0.6,0.2-0.9,0.2h-1.6c-0.4,0-0.7-0.1-1-0.2c-0.3-0.2-0.5-0.4-0.7-0.7c-0.2-0.3-0.3-0.6-0.4-0.9
		c-0.1-0.4-0.1-0.7-0.1-1.1v-7.1c0-0.9,0.2-1.7,0.5-2.3c0.3-0.6,0.8-0.9,1.6-0.9v9.9h1.8v-6.8c0-0.4,0-0.8,0.1-1.2
		c0.1-0.4,0.2-0.7,0.3-1c0.2-0.3,0.4-0.5,0.6-0.7s0.5-0.3,0.9-0.3H920.1z M922.2,643.4c0,0.3,0,0.6-0.1,0.8
		c-0.1,0.3-0.2,0.5-0.3,0.7c-0.1,0.2-0.3,0.4-0.5,0.5s-0.4,0.2-0.6,0.2h-5.8v-2.5h7.4V643.4z M920.7,634.3c0.3,0,0.5,0.1,0.7,0.2
		c0.2,0.1,0.4,0.3,0.5,0.5s0.2,0.4,0.3,0.7c0.1,0.3,0.1,0.6,0.1,0.9v3c0,0.3,0,0.6-0.1,0.9c-0.1,0.3-0.2,0.5-0.3,0.7
		c-0.1,0.2-0.3,0.4-0.5,0.5c-0.2,0.1-0.4,0.2-0.7,0.2h-5.8v-0.2c0-0.7,0.1-1.2,0.4-1.6c0.3-0.4,0.7-0.6,1.1-0.6h4.3V634.3z
		 M919.3,623.4c0.1,0,0.2,0.1,0.3,0.3c0.2,0.2,0.3,0.5,0.6,0.8c0.2,0.3,0.4,0.7,0.7,1.1c0.2,0.4,0.5,0.8,0.7,1.1
		c0.2,0.4,0.4,0.7,0.6,1c0.2,0.3,0.3,0.5,0.3,0.6c-0.1,0.1-0.2,0.4-0.3,0.6c-0.2,0.3-0.4,0.6-0.6,1c-0.2,0.4-0.5,0.7-0.7,1.1
		c-0.2,0.4-0.5,0.7-0.7,1c-0.2,0.3-0.4,0.6-0.6,0.8c-0.2,0.2-0.3,0.3-0.3,0.3h-4.5v-0.2c0-0.6,0.1-1.1,0.4-1.6
		c0.2-0.4,0.6-0.6,1-0.6h2.5c0.1,0,0.2-0.1,0.3-0.3c0.2-0.2,0.3-0.4,0.5-0.7c0.2-0.3,0.3-0.5,0.5-0.8c0.2-0.3,0.3-0.5,0.4-0.6
		c-0.1-0.1-0.2-0.3-0.4-0.6c-0.2-0.3-0.3-0.6-0.5-0.8c-0.2-0.3-0.3-0.5-0.5-0.7c-0.1-0.2-0.2-0.3-0.3-0.3h-2.5c-0.4,0-0.7-0.2-1-0.7
		c-0.3-0.4-0.4-1-0.4-1.6v-0.2H919.3z M919.3,615.1v4.7h1.4v-7.4c0.3,0,0.5,0.1,0.7,0.2c0.2,0.1,0.3,0.3,0.5,0.5
		c0.1,0.2,0.2,0.4,0.3,0.7s0.1,0.6,0.1,0.9v5.4c0,0.3,0,0.6-0.1,0.9c-0.1,0.3-0.2,0.5-0.3,0.7c-0.1,0.2-0.3,0.4-0.5,0.5
		c-0.2,0.1-0.4,0.2-0.6,0.2h-4.3c-0.2,0-0.4-0.1-0.6-0.2c-0.2-0.1-0.4-0.3-0.5-0.5c-0.1-0.2-0.2-0.4-0.3-0.7
		c-0.1-0.3-0.1-0.5-0.1-0.8v-5.5c0-0.7,0.1-1.2,0.4-1.6s0.7-0.6,1.1-0.6v7.4h1.4v-4.7H919.3z M920.7,601.2c0.5,0,0.9,0.2,1.2,0.6
		c0.3,0.4,0.4,1,0.4,1.7v5.2c0,0.3,0,0.6-0.1,0.9c-0.1,0.3-0.2,0.5-0.3,0.7c-0.1,0.2-0.3,0.4-0.5,0.5c-0.2,0.1-0.4,0.2-0.7,0.2v-7.5
		h-1.4v5.3c0,0.3,0,0.6-0.1,0.8c-0.1,0.3-0.2,0.5-0.3,0.7c-0.1,0.2-0.3,0.4-0.5,0.5c-0.2,0.1-0.4,0.2-0.7,0.2h-1.2
		c-0.3,0-0.5-0.1-0.8-0.2s-0.4-0.3-0.5-0.5s-0.2-0.4-0.3-0.7s-0.1-0.6-0.1-0.9v-5.4c0-0.7,0.1-1.3,0.4-1.7c0.2-0.4,0.6-0.6,1.2-0.6
		v7.4h1.4v-5.1c0-0.3,0-0.6,0.1-0.9c0.1-0.3,0.1-0.5,0.3-0.7c0.1-0.2,0.3-0.4,0.5-0.5c0.2-0.1,0.4-0.2,0.7-0.2H920.7z M915.1,590
		c0.3,0,0.6,0.1,0.7,0.2c0.2,0.2,0.3,0.3,0.4,0.5c0.1,0.2,0.1,0.4,0.1,0.7c0,0.2,0,0.4,0,0.6v1.7h4.3c0.6,0,0.9,0.1,1.2,0.4
		c0.2,0.2,0.4,0.7,0.4,1.4v0.7h-5.8v3.8h-0.2c-0.5,0-0.9-0.2-1.1-0.5c-0.2-0.3-0.3-0.7-0.3-1.3V590H915.1z M922.2,581.7l-4.5,3.5
		v-3.8h-1.4v5h4.1c0.7,0,1.2,0.2,1.4,0.6c0.1,0.2,0.2,0.4,0.2,0.7c0,0.3,0.1,0.6,0.1,0.8v0.3h-7.3v-7.7c0-0.7,0.1-1.2,0.4-1.6
		s0.7-0.6,1.1-0.6h1.4c0.5,0,0.8,0.2,1.1,0.5c0.3,0.4,0.4,0.9,0.4,1.6l2.9-2.4V581.7z M919.3,570.4v4.7h1.4v-7.4
		c0.3,0,0.5,0.1,0.7,0.2c0.2,0.1,0.3,0.3,0.5,0.5c0.1,0.2,0.2,0.4,0.3,0.7s0.1,0.6,0.1,0.9v5.4c0,0.3,0,0.6-0.1,0.9
		c-0.1,0.3-0.2,0.5-0.3,0.7c-0.1,0.2-0.3,0.4-0.5,0.5c-0.2,0.1-0.4,0.2-0.6,0.2h-4.3c-0.2,0-0.4-0.1-0.6-0.2
		c-0.2-0.1-0.4-0.3-0.5-0.5c-0.1-0.2-0.2-0.4-0.3-0.7c-0.1-0.3-0.1-0.5-0.1-0.8v-5.5c0-0.7,0.1-1.2,0.4-1.6s0.7-0.6,1.1-0.6v7.4h1.4
		v-4.7H919.3z M922.2,552.1h-3.9v6.6h1.5c0.5,0,0.9,0.1,1.1,0.2s0.5,0.4,0.7,0.7c0.2,0.3,0.3,0.6,0.4,1s0.1,0.8,0.1,1.2v0.2h-7.7
		c-0.4,0-0.7-0.1-1-0.2s-0.5-0.4-0.7-0.6c-0.2-0.3-0.3-0.6-0.4-1c-0.1-0.4-0.1-0.7-0.1-1.1v-10.3h9.8V552.1z M914.4,552.1v6.6h1.8
		v-6.6H914.4z M922.2,540.5l-4.5,3.5v-3.8h-1.4v5h4.1c0.7,0,1.2,0.2,1.4,0.6c0.1,0.2,0.2,0.4,0.2,0.7c0,0.3,0.1,0.6,0.1,0.8v0.3
		h-7.3v-7.7c0-0.7,0.1-1.2,0.4-1.6s0.7-0.6,1.1-0.6h1.4c0.5,0,0.8,0.2,1.1,0.5c0.3,0.4,0.4,0.9,0.4,1.6l2.9-2.4V540.5z M915.1,526.3
		c0.3,0,0.6,0.1,0.7,0.2c0.2,0.1,0.3,0.3,0.4,0.5c0.1,0.2,0.1,0.4,0.1,0.7c0,0.2,0,0.4,0,0.6v1.7h4.3c0.6,0,0.9,0.1,1.2,0.4
		c0.2,0.3,0.4,0.7,0.4,1.4v0.7h-5.8v3.8h-0.2c-0.5,0-0.9-0.2-1.1-0.5c-0.2-0.3-0.3-0.7-0.3-1.3v-8.3H915.1z M919.3,517.9v4.7h1.4
		v-7.4c0.3,0,0.5,0.1,0.7,0.2c0.2,0.1,0.3,0.3,0.5,0.5c0.1,0.2,0.2,0.4,0.3,0.7s0.1,0.6,0.1,0.9v5.4c0,0.3,0,0.6-0.1,0.9
		c-0.1,0.3-0.2,0.5-0.3,0.7c-0.1,0.2-0.3,0.4-0.5,0.5c-0.2,0.1-0.4,0.2-0.6,0.2h-4.3c-0.2,0-0.4-0.1-0.6-0.2
		c-0.2-0.1-0.4-0.3-0.5-0.5c-0.1-0.2-0.2-0.4-0.3-0.7c-0.1-0.3-0.1-0.5-0.1-0.8v-5.5c0-0.7,0.1-1.2,0.4-1.6s0.7-0.6,1.1-0.6v7.4h1.4
		v-4.7H919.3z M920.1,485.2c0.4,0,0.7,0.1,0.9,0.2c0.2,0.2,0.5,0.4,0.6,0.6c0.2,0.3,0.3,0.6,0.4,1s0.1,0.8,0.1,1.2v7.3
		c0,0.4,0,0.8-0.1,1.1c-0.1,0.4-0.2,0.7-0.4,0.9c-0.2,0.3-0.4,0.5-0.6,0.6c-0.3,0.2-0.5,0.2-0.8,0.2h-5.8c-0.3,0-0.6-0.1-0.8-0.2
		s-0.4-0.4-0.6-0.6c-0.2-0.3-0.3-0.6-0.4-0.9c-0.1-0.4-0.2-0.7-0.2-1.1v-7.3c0-0.9,0.2-1.6,0.5-2.2c0.3-0.5,0.9-0.8,1.6-0.8v9.9h5.8
		v-6.7h-1.8v2.4c0,0.8-0.2,1.5-0.5,2s-0.7,0.9-1.2,0.9h-0.4v-8.6H920.1z M922.2,476.9l-4.5,3.5v-3.8h-1.4v5h4.1
		c0.7,0,1.2,0.2,1.4,0.6c0.1,0.2,0.2,0.4,0.2,0.7c0,0.3,0.1,0.6,0.1,0.8v0.3h-7.3v-7.7c0-0.7,0.1-1.2,0.4-1.6s0.7-0.6,1.1-0.6h1.4
		c0.5,0,0.8,0.2,1.1,0.5c0.3,0.4,0.4,0.9,0.4,1.6l2.9-2.4V476.9z M913.4,467v1.1l-2.9-0.6v-1.4L913.4,467z M922.2,465.3h-2.9v5h1.2
		c0.4,0,0.6,0.1,0.8,0.2c0.2,0.1,0.4,0.3,0.5,0.5c0.1,0.2,0.2,0.5,0.3,0.7c0.1,0.3,0.1,0.6,0.1,0.9v0.2h-5.8c-0.3,0-0.5-0.1-0.7-0.2
		s-0.4-0.3-0.5-0.5c-0.1-0.2-0.2-0.4-0.3-0.7c-0.1-0.3-0.1-0.6-0.1-0.9v-7.7h7.4V465.3z M916.4,465.3v5h1.4v-5H916.4z M914.8,452.6
		c0.2,0,0.4,0,0.6,0.1c0.2,0.1,0.4,0.2,0.5,0.4c0.1,0.2,0.2,0.5,0.3,0.8c0.1,0.3,0.1,0.7,0.1,1.2v4.1h1.4v-3h1.6v3h1.2
		c0.7,0,1.2,0.2,1.4,0.6c0.1,0.2,0.2,0.4,0.3,0.7c0,0.3,0.1,0.6,0.1,0.8v0.3h-5.8c-0.4,0-0.7-0.1-0.9-0.2c-0.2-0.2-0.4-0.3-0.5-0.6
		c-0.1-0.2-0.2-0.5-0.2-0.7s0-0.5,0-0.7V452.6z M922.2,449.2c0,0.3,0,0.6-0.1,0.8c-0.1,0.3-0.2,0.5-0.3,0.7
		c-0.1,0.2-0.3,0.4-0.5,0.5s-0.4,0.2-0.6,0.2h-5.8V449h7.4V449.2z M916.4,437.9c0.3,0,0.5,0.1,0.6,0.2s0.3,0.3,0.3,0.5
		c0.1,0.2,0.3,0.5,0.3,0.7s0.1,0.5,0.1,0.8v0.2h-1.4v5h4.3v-5h-1.5v-2.4h1.4c0.3,0,0.5,0.1,0.7,0.2c0.2,0.1,0.4,0.3,0.5,0.5
		c0.1,0.2,0.2,0.4,0.3,0.7c0.1,0.3,0.1,0.6,0.1,0.9v5.5c0,0.3,0,0.6-0.1,0.8c-0.1,0.3-0.2,0.5-0.3,0.7c-0.1,0.2-0.3,0.4-0.5,0.5
		s-0.4,0.2-0.6,0.2h-4.3c-0.2,0-0.4-0.1-0.6-0.2s-0.3-0.3-0.5-0.5c-0.1-0.2-0.2-0.4-0.3-0.7c-0.1-0.3-0.1-0.6-0.1-0.9v-5.4
		c0-0.7,0.1-1.2,0.4-1.7C915.5,438.1,915.9,437.9,916.4,437.9z M922.2,429.2h-2.9v5h1.2c0.4,0,0.6,0.1,0.8,0.2
		c0.2,0.1,0.4,0.3,0.5,0.5c0.1,0.2,0.2,0.5,0.3,0.7c0.1,0.3,0.1,0.6,0.1,0.9v0.2h-5.8c-0.3,0-0.5-0.1-0.7-0.2
		c-0.2-0.1-0.4-0.3-0.5-0.5c-0.1-0.2-0.2-0.4-0.3-0.7c-0.1-0.3-0.1-0.6-0.1-0.9v-7.7h7.4V429.2z M916.4,429.2v5h1.4v-5H916.4z
		 M920.7,415.6c0.5,0,0.9,0.2,1.2,0.6c0.3,0.4,0.4,1,0.4,1.7v5.2c0,0.3,0,0.6-0.1,0.9s-0.2,0.5-0.3,0.7c-0.1,0.2-0.3,0.4-0.5,0.5
		c-0.2,0.1-0.4,0.2-0.7,0.2v-7.5h-1.4v5.3c0,0.3,0,0.6-0.1,0.8c-0.1,0.3-0.2,0.5-0.3,0.7c-0.1,0.2-0.3,0.4-0.5,0.5
		c-0.2,0.1-0.4,0.2-0.7,0.2h-1.2c-0.3,0-0.5-0.1-0.8-0.2s-0.4-0.3-0.5-0.5c-0.1-0.2-0.2-0.4-0.3-0.7c-0.1-0.3-0.1-0.6-0.1-0.9V418
		c0-0.7,0.1-1.3,0.4-1.7c0.2-0.4,0.6-0.6,1.2-0.6v7.4h1.4V418c0-0.3,0-0.6,0.1-0.9c0.1-0.3,0.1-0.5,0.3-0.7c0.1-0.2,0.3-0.4,0.5-0.5
		c0.2-0.1,0.4-0.2,0.7-0.2H920.7z M919.3,402.8v4.7h1.4v-7.4c0.3,0,0.5,0.1,0.7,0.2c0.2,0.1,0.3,0.3,0.5,0.5
		c0.1,0.2,0.2,0.4,0.3,0.7c0.1,0.3,0.1,0.6,0.1,0.9v5.4c0,0.3,0,0.6-0.1,0.9c-0.1,0.3-0.2,0.5-0.3,0.7c-0.1,0.2-0.3,0.4-0.5,0.5
		s-0.4,0.2-0.6,0.2h-4.3c-0.2,0-0.4-0.1-0.6-0.2c-0.2-0.1-0.4-0.3-0.5-0.5c-0.1-0.2-0.2-0.4-0.3-0.7s-0.1-0.5-0.1-0.8v-5.5
		c0-0.7,0.1-1.2,0.4-1.6s0.7-0.6,1.1-0.6v7.4h1.4v-4.7H919.3z M922.2,384.5h-3.9v6.6h1.5c0.5,0,0.9,0.1,1.1,0.2s0.5,0.4,0.7,0.7
		c0.2,0.3,0.3,0.6,0.4,1s0.1,0.8,0.1,1.2v0.2h-7.7c-0.4,0-0.7-0.1-1-0.2s-0.5-0.4-0.7-0.6c-0.2-0.3-0.3-0.6-0.4-0.9
		c-0.1-0.4-0.1-0.7-0.1-1.1v-10.3h9.8V384.5z M914.4,384.5v6.6h1.8v-6.6H914.4z M920.7,370.1c0.3,0,0.5,0.1,0.7,0.2
		c0.2,0.1,0.3,0.3,0.5,0.5c0.1,0.2,0.2,0.4,0.3,0.7c0.1,0.3,0.1,0.6,0.1,0.9v7.7h-7.4v-7.7c0-0.7,0.1-1.2,0.4-1.6s0.7-0.6,1.1-0.6
		H920.7z M916.4,377.5h4.3v-4.9h-4.3V377.5z M919.3,361.8v4.7h1.4v-7.4c0.3,0,0.5,0.1,0.7,0.2c0.2,0.1,0.3,0.3,0.5,0.5
		c0.1,0.2,0.2,0.4,0.3,0.7c0.1,0.3,0.1,0.6,0.1,0.9v5.4c0,0.3,0,0.6-0.1,0.9c-0.1,0.3-0.2,0.5-0.3,0.7c-0.1,0.2-0.3,0.4-0.5,0.5
		s-0.4,0.2-0.6,0.2h-4.3c-0.2,0-0.4-0.1-0.6-0.2c-0.2-0.1-0.4-0.3-0.5-0.5c-0.1-0.2-0.2-0.4-0.3-0.7s-0.1-0.5-0.1-0.8v-5.5
		c0-0.7,0.1-1.2,0.4-1.6s0.7-0.6,1.1-0.6v7.4h1.4v-4.7H919.3z M920.7,347.9c0.5,0,0.9,0.2,1.2,0.6c0.3,0.4,0.4,1,0.4,1.7v5.2
		c0,0.3,0,0.6-0.1,0.9s-0.2,0.5-0.3,0.7c-0.1,0.2-0.3,0.4-0.5,0.5c-0.2,0.1-0.4,0.2-0.7,0.2v-7.5h-1.4v5.3c0,0.3,0,0.6-0.1,0.8
		c-0.1,0.3-0.2,0.5-0.3,0.7c-0.1,0.2-0.3,0.4-0.5,0.5c-0.2,0.1-0.4,0.2-0.7,0.2h-1.2c-0.3,0-0.5-0.1-0.8-0.2s-0.4-0.3-0.5-0.5
		c-0.1-0.2-0.2-0.4-0.3-0.7c-0.1-0.3-0.1-0.6-0.1-0.9v-5.4c0-0.7,0.1-1.3,0.4-1.7s0.6-0.6,1.2-0.6v7.4h1.4v-5.1c0-0.3,0-0.6,0.1-0.9
		c0.1-0.3,0.1-0.5,0.3-0.7c0.1-0.2,0.3-0.4,0.5-0.5c0.2-0.1,0.4-0.2,0.7-0.2H920.7z M922.2,344.5c0,0.3,0,0.6-0.1,0.8
		c-0.1,0.3-0.2,0.5-0.3,0.7c-0.1,0.2-0.3,0.4-0.5,0.5s-0.4,0.2-0.6,0.2h-5.8v-2.5h7.4V344.5z M919.3,333.4c0.1,0,0.2,0.1,0.3,0.3
		c0.2,0.2,0.3,0.5,0.6,0.8c0.2,0.3,0.4,0.7,0.7,1c0.2,0.4,0.5,0.8,0.7,1.1c0.2,0.4,0.4,0.7,0.6,1c0.2,0.3,0.3,0.5,0.3,0.6
		c-0.1,0.1-0.2,0.4-0.3,0.6c-0.2,0.3-0.4,0.6-0.6,1c-0.2,0.4-0.5,0.7-0.7,1.1c-0.2,0.4-0.5,0.7-0.7,1c-0.2,0.3-0.4,0.6-0.6,0.8
		c-0.2,0.2-0.3,0.3-0.3,0.3h-4.5v-0.2c0-0.6,0.1-1.1,0.4-1.6c0.2-0.4,0.6-0.6,1-0.6h2.5c0.1,0,0.2-0.1,0.3-0.3
		c0.2-0.2,0.3-0.4,0.5-0.7c0.2-0.3,0.3-0.5,0.5-0.8c0.2-0.3,0.3-0.5,0.4-0.6c-0.1-0.1-0.2-0.3-0.4-0.6s-0.3-0.6-0.5-0.8
		s-0.3-0.5-0.5-0.7c-0.1-0.2-0.2-0.3-0.3-0.3h-2.5c-0.4,0-0.7-0.2-1-0.7c-0.3-0.4-0.4-1-0.4-1.6v-0.2H919.3z M920.7,322.3
		c0.3,0,0.5,0.1,0.7,0.2c0.2,0.1,0.3,0.3,0.5,0.5c0.1,0.2,0.2,0.4,0.3,0.7c0.1,0.3,0.1,0.6,0.1,0.9v5.5c0,0.3,0,0.6-0.1,0.9
		c-0.1,0.3-0.2,0.5-0.3,0.7c-0.1,0.2-0.3,0.4-0.5,0.5c-0.2,0.1-0.4,0.2-0.6,0.2h-4.4c-0.2,0-0.4-0.1-0.6-0.2
		c-0.2-0.1-0.4-0.3-0.5-0.5c-0.1-0.2-0.2-0.4-0.3-0.7c-0.1-0.3-0.1-0.6-0.1-0.9v-5.5c0-0.7,0.1-1.2,0.4-1.6s0.6-0.6,1.1-0.6H920.7z
		 M916.4,324.7v5h4.3v-5H916.4z M920.7,311.2c0.5,0,0.9,0.2,1.2,0.6c0.3,0.4,0.4,1,0.4,1.7v5.2c0,0.3,0,0.6-0.1,0.9
		s-0.2,0.5-0.3,0.7c-0.1,0.2-0.3,0.4-0.5,0.5c-0.2,0.1-0.4,0.2-0.7,0.2v-7.5h-1.4v5.3c0,0.3,0,0.6-0.1,0.8c-0.1,0.3-0.2,0.5-0.3,0.7
		c-0.1,0.2-0.3,0.4-0.5,0.5c-0.2,0.1-0.4,0.2-0.7,0.2h-1.2c-0.3,0-0.5-0.1-0.8-0.2c-0.2-0.1-0.4-0.3-0.5-0.5
		c-0.1-0.2-0.2-0.4-0.3-0.7s-0.1-0.6-0.1-0.9v-5.4c0-0.7,0.1-1.3,0.4-1.7s0.6-0.6,1.2-0.6v7.4h1.4v-5.1c0-0.3,0-0.6,0.1-0.9
		c0.1-0.3,0.1-0.5,0.3-0.7s0.3-0.4,0.5-0.5c0.2-0.1,0.4-0.2,0.7-0.2H920.7"/>
</g>
</svg>
